<svg width="10" height="10" viewBox="0 0 10 10" fill="none" xmlns="http://www.w3.org/2000/svg">
<path fill-rule="evenodd" clip-rule="evenodd" d="M9.6206 6.91394L9.15873 6.72241L8.69687 6.53089C8.89187 6.06064 9 5.54421 9 5C9 4.45579 8.89187 3.93936 8.69687 3.46911L9.15873 3.27759L9.6206 3.08606C9.86507 3.6756 10 4.32204 10 5C10 5.67796 9.86507 6.3244 9.6206 6.91394ZM6.91394 0.379402L6.72241 0.841266L6.53089 1.30313C6.06064 1.10813 5.54421 1 5 1C4.45579 1 3.93936 1.10813 3.46911 1.30313L3.27759 0.841266L3.08606 0.379403C3.6756 0.134931 4.32204 0 5 0C5.67796 0 6.3244 0.134931 6.91394 0.379402ZM0.379402 3.08606C0.134931 3.6756 0 4.32204 0 5C0 5.67796 0.134931 6.3244 0.379403 6.91394L0.841266 6.72241L1.30313 6.53089C1.10813 6.06064 1 5.54421 1 5C1 4.45579 1.10813 3.93936 1.30313 3.46912L0.841265 3.27759L0.379402 3.08606ZM3.08606 9.6206L3.27759 9.15873L3.46912 8.69687C3.93936 8.89187 4.45579 9 5 9C5.54421 9 6.06064 8.89187 6.53089 8.69687L6.72241 9.15873L6.91394 9.6206C6.3244 9.86507 5.67796 10 5 10C4.32204 10 3.6756 9.86507 3.08606 9.6206ZM6.53112 8.69661L6.33996 8.23459L6.1488 7.77257C6.50126 7.62675 6.83238 7.41037 7.12132 7.12144C7.41026 6.8325 7.62663 6.50137 7.77246 6.14892L8.23448 6.34008L8.69649 6.53123C8.50129 7.00302 8.21194 7.44503 7.82843 7.82854C7.44492 8.21205 7.0029 8.50141 6.53112 8.69661ZM8.69649 3.469L8.23448 3.66015L7.77246 3.85131C7.62663 3.49886 7.41026 3.16773 7.12132 2.8788C6.83238 2.58986 6.50126 2.37348 6.1488 2.22766L6.33996 1.76564L6.53112 1.30362C7.0029 1.49882 7.44492 1.78818 7.82843 2.17169C8.21194 2.5552 8.50129 2.99721 8.69649 3.469ZM3.46888 1.30362C2.9971 1.49882 2.55508 1.78818 2.17157 2.17169C1.78806 2.5552 1.49871 2.99721 1.30351 3.469L1.76552 3.66016L2.22754 3.85131C2.34172 3.57534 2.49916 3.31244 2.70082 3.07263C2.26334 3.59393 1.99988 4.2662 1.99988 5C1.99988 5.81206 2.32253 6.54877 2.84663 7.08891C2.57369 6.80775 2.36792 6.48822 2.22754 6.14892L1.76552 6.34008L1.30351 6.53123C1.49871 7.00302 1.78806 7.44503 2.17157 7.82854C2.55508 8.21205 2.9971 8.50141 3.46888 8.69661L3.66004 8.23459L3.8512 7.77257C3.50803 7.63059 3.18508 7.42173 2.90161 7.14413C3.44258 7.6736 4.18311 8 4.99988 8C6.65673 8 7.99988 6.65685 7.99988 5C7.99988 3.34315 6.65673 2 4.99988 2C4.26581 2 3.59331 2.26365 3.07193 2.70143C3.3119 2.49953 3.575 2.34193 3.8512 2.22766L3.66004 1.76564L3.46888 1.30362Z" fill="black"/>
</svg>
