<svg width="25" height="25" viewBox="0 0 25 25" fill="none" xmlns="http://www.w3.org/2000/svg">
<mask id="mask0_82_331" style="mask-type:alpha" maskUnits="userSpaceOnUse" x="0" y="0" width="25" height="25">
<rect x="0.124023" y="0.433594" width="24" height="24" fill="white"/>
</mask>
<g mask="url(#mask0_82_331)">
<path d="M6.12402 21.4333C5.37402 21.4333 4.63236 21.25 3.89902 20.8833C3.16569 20.5166 2.57402 20.0333 2.12402 19.4333C2.55736 19.4333 2.99902 19.2625 3.44902 18.9208C3.89902 18.5791 4.12402 18.0833 4.12402 17.4333C4.12402 16.6 4.41569 15.8916 4.99902 15.3083C5.58236 14.725 6.29069 14.4333 7.12402 14.4333C7.95736 14.4333 8.66569 14.725 9.24902 15.3083C9.83236 15.8916 10.124 16.6 10.124 17.4333C10.124 18.5333 9.73236 19.475 8.94902 20.2583C8.16569 21.0416 7.22402 21.4333 6.12402 21.4333ZM6.12402 19.4333C6.67402 19.4333 7.14486 19.2375 7.53652 18.8458C7.92819 18.4541 8.12402 17.9833 8.12402 17.4333C8.12402 17.15 8.02819 16.9125 7.83652 16.7208C7.64486 16.5291 7.40736 16.4333 7.12402 16.4333C6.84069 16.4333 6.60319 16.5291 6.41152 16.7208C6.21986 16.9125 6.12402 17.15 6.12402 17.4333C6.12402 17.8166 6.07819 18.1666 5.98652 18.4833C5.89486 18.8 5.77402 19.1 5.62402 19.3833C5.70736 19.4166 5.79069 19.4333 5.87402 19.4333H6.12402ZM11.874 15.4333L9.12402 12.6833L18.074 3.73331C18.2574 3.54998 18.4865 3.45415 18.7615 3.44581C19.0365 3.43748 19.274 3.53331 19.474 3.73331L20.824 5.08331C21.024 5.28331 21.124 5.51665 21.124 5.78331C21.124 6.04998 21.024 6.28331 20.824 6.48331L11.874 15.4333Z" fill="white"/>
</g>
</svg>
