<svg xmlns="http://www.w3.org/2000/svg" viewBox="0 0 40 40" fill="none">
    <mask id="mask0_73_221" style="mask-type:alpha" maskUnits="userSpaceOnUse" x="0" y="0" width="40" height="40">
    <rect width="40" height="40" fill="#D9D9D9"/>
    </mask>
    <g mask="url(#mask0_73_221)">
    <path d="M18.75 22.5C19.8056 22.5 20.6944 22.1389 21.4167 21.4167C22.1389 20.6944 22.5 19.8056 22.5 18.75C22.5 17.6944 22.1389 16.8056 21.4167 16.0833C20.6944 15.3611 19.8056 15 18.75 15C17.6944 15 16.8056 15.3611 16.0833 16.0833C15.3611 16.8056 15 17.6944 15 18.75C15 19.8056 15.3611 20.6944 16.0833 21.4167C16.8056 22.1389 17.6944 22.5 18.75 22.5ZM26.7917 29.1667L22.4167 24.7917C21.8611 25.1528 21.2708 25.4167 20.6458 25.5833C20.0208 25.75 19.3889 25.8333 18.75 25.8333C16.7778 25.8333 15.1042 25.1458 13.7292 23.7708C12.3542 22.3958 11.6667 20.7222 11.6667 18.75C11.6667 16.7778 12.3542 15.1042 13.7292 13.7292C15.1042 12.3542 16.7778 11.6667 18.75 11.6667C20.7222 11.6667 22.3958 12.3542 23.7708 13.7292C25.1458 15.1042 25.8333 16.7778 25.8333 18.75C25.8333 19.3889 25.7431 20.0208 25.5625 20.6458C25.3819 21.2708 25.1111 21.8611 24.75 22.4167L29.1667 26.8333L26.7917 29.1667ZM8.33333 35C7.41667 35 6.63194 34.6736 5.97917 34.0208C5.32639 33.3681 5 32.5833 5 31.6667V25H8.33333V31.6667H15V35H8.33333ZM25 35V31.6667H31.6667V25H35V31.6667C35 32.5833 34.6736 33.3681 34.0208 34.0208C33.3681 34.6736 32.5833 35 31.6667 35H25ZM5 15V8.33333C5 7.41667 5.32639 6.63194 5.97917 5.97917C6.63194 5.32639 7.41667 5 8.33333 5H15V8.33333H8.33333V15H5ZM31.6667 15V8.33333H25V5H31.6667C32.5833 5 33.3681 5.32639 34.0208 5.97917C34.6736 6.63194 35 7.41667 35 8.33333V15H31.6667Z" fill="white"/>
    </g>
    </svg>