<svg xmlns="http://www.w3.org/2000/svg"  viewBox="0 0 40 40" fill="none">
    <mask id="mask0_73_206" style="mask-type:alpha" maskUnits="userSpaceOnUse" x="0" y="0">
        <rect width="40" height="40" fill="#D9D9D9" />
    </mask>
    <g mask="url(#mask0_73_206)">
        <path
            d="M4.99984 33.3337C4.08317 33.3337 3.29845 33.0073 2.64567 32.3545C1.99289 31.7017 1.6665 30.917 1.6665 30.0003V10.0003C1.6665 9.08366 1.99289 8.29894 2.64567 7.64616C3.29845 6.99338 4.08317 6.66699 4.99984 6.66699H34.9998C35.9165 6.66699 36.7012 6.99338 37.354 7.64616C38.0068 8.29894 38.3332 9.08366 38.3332 10.0003V30.0003C38.3332 30.917 38.0068 31.7017 37.354 32.3545C36.7012 33.0073 35.9165 33.3337 34.9998 33.3337H4.99984ZM4.99984 30.0003H34.9998V10.0003H4.99984V30.0003ZM13.3332 28.3337H26.6665V25.0003H13.3332V28.3337ZM8.33317 22.5003H11.6665V19.167H8.33317V22.5003ZM14.9998 22.5003H18.3332V19.167H14.9998V22.5003ZM21.6665 22.5003H24.9998V19.167H21.6665V22.5003ZM28.3332 22.5003H31.6665V19.167H28.3332V22.5003ZM8.33317 16.667H11.6665V13.3337H8.33317V16.667ZM14.9998 16.667H18.3332V13.3337H14.9998V16.667ZM21.6665 16.667H24.9998V13.3337H21.6665V16.667ZM28.3332 16.667H31.6665V13.3337H28.3332V16.667Z"
            fill="#F5F5F5" />
    </g>
</svg>