<svg xmlns="http://www.w3.org/2000/svg" viewBox="0 0 40 40" fill="none">
    <mask id="mask0_73_252" style="mask-type:alpha" maskUnits="userSpaceOnUse" x="0" y="0" width="40" height="40">
      <rect width="40" height="40" fill="#D9D9D9"/>
    </mask>
    <g mask="url(#mask0_73_252)">
      <path d="M8.16683 28.4997C6.5835 26.833 5.38211 24.9858 4.56266 22.958C3.74322 20.9302 3.3335 18.833 3.3335 16.6663C3.3335 14.4997 3.74322 12.4025 4.56266 10.3747C5.38211 8.3469 6.5835 6.49967 8.16683 4.83301L10.1668 6.83301C8.8335 8.16634 7.8335 9.70106 7.16683 11.4372C6.50016 13.1733 6.16683 14.9163 6.16683 16.6663C6.16683 18.4163 6.50016 20.1594 7.16683 21.8955C7.8335 23.6316 8.8335 25.1663 10.1668 26.4997L8.16683 28.4997ZM12.1668 24.4997C11.0835 23.4163 10.2571 22.1941 9.68766 20.833C9.11822 19.4719 8.8335 18.083 8.8335 16.6663C8.8335 15.2497 9.11822 13.8608 9.68766 12.4997C10.2571 11.1386 11.0835 9.91634 12.1668 8.83301L14.1668 10.833C13.3335 11.583 12.7085 12.4719 12.2918 13.4997C11.8752 14.5275 11.6668 15.583 11.6668 16.6663C11.6668 17.6663 11.8752 18.6802 12.2918 19.708C12.7085 20.7358 13.3335 21.6663 14.1668 22.4997L12.1668 24.4997ZM11.6668 36.6663L17.2918 19.7913C16.8474 19.4025 16.4932 18.9441 16.2293 18.4163C15.9654 17.8886 15.8335 17.3052 15.8335 16.6663C15.8335 15.4997 16.2363 14.5136 17.0418 13.708C17.8474 12.9025 18.8335 12.4997 20.0002 12.4997C21.1668 12.4997 22.1529 12.9025 22.9585 13.708C23.7641 14.5136 24.1668 15.4997 24.1668 16.6663C24.1668 17.3052 24.0349 17.8886 23.771 18.4163C23.5071 18.9441 23.1529 19.4025 22.7085 19.7913L28.3335 36.6663H25.0002L23.9168 33.333H16.1252L15.0002 36.6663H11.6668ZM17.2085 29.9997H22.7918L20.0002 21.6663L17.2085 29.9997ZM27.8335 24.4997L25.8335 22.4997C26.6668 21.7497 27.2918 20.8608 27.7085 19.833C28.1252 18.8052 28.3335 17.7497 28.3335 16.6663C28.3335 15.6663 28.1252 14.6525 27.7085 13.6247C27.2918 12.5969 26.6668 11.6663 25.8335 10.833L27.8335 8.83301C28.9168 9.91634 29.7224 11.1386 30.2502 12.4997C30.7779 13.8608 31.0835 15.2497 31.1668 16.6663C31.1668 18.083 30.8821 19.4719 30.3127 20.833C29.7432 22.1941 28.9168 23.4163 27.8335 24.4997ZM31.8335 28.4997L29.8335 26.4997C31.1668 25.1663 32.1668 23.6316 32.8335 21.8955C33.5002 20.1594 33.8335 18.4163 33.8335 16.6663C33.8335 14.9163 33.5002 13.1733 32.8335 11.4372C32.1668 9.70106 31.1668 8.16634 29.8335 6.83301L31.8335 4.83301C33.4168 6.49967 34.6182 8.3469 35.4377 10.3747C36.2571 12.4025 36.6668 14.4997 36.6668 16.6663C36.6668 18.833 36.2779 20.9302 35.5002 22.958C34.7224 24.9858 33.5002 26.833 31.8335 28.4997Z" fill="white"/>
    </g>
  </svg>